<?xml version="1.0" encoding="UTF-8" standalone="no"?>
<svg xmlns:rdf="http://www.w3.org/1999/02/22-rdf-syntax-ns#" xmlns="http://www.w3.org/2000/svg" xml:space="preserve" height="78.391" viewBox="0 0 73.005676 78.391251" width="73.006" version="1.1" xmlns:cc="http://creativecommons.org/ns#" xmlns:dc="http://purl.org/dc/elements/1.1/"><g transform="matrix(1.25 0 0 -1.25 -835.67 582.03)"><g transform="translate(.34643 .46191)"><path d="m680.63 402.91-0.005 0.689-0.011 1.335-0.002 0.375-0.052 6.512-8.807-2.446-0.356-0.101-1.29-0.36-0.666-0.187 0.003 0.692 0.008 1.337 0.001 0.375 0.037 10.214v0.079 0.303 0.156l0.086 0.13 0.166 0.253 0.046 0.07 1.645 2.469 0.052 0.079 0.211 0.319 0.108 0.163 0.188 0.053 0.364 0.1 0.1 0.028 0.348 0.096 0.113 0.031 0.473 0.127 0.529 0.146c-3.267 1.22-5.057 3.922-5.329 8.057-0.26 3.968 0.551 5.827 1.335 7.623l0.173 0.399c2.312 4.623 6.728 8.194 10.207 9.783l0.001 0.63 0.042 5.27 0.002 0.096 0.002 0.321 0.002 0.169 0.1 0.137 0.192 0.261 0.052 0.072 1.824 2.519 0.029 0.043 0.186 0.268 0.095 0.135 0.156 0.057 0.303 0.11 0.083 0.03 0.284 0.106 0.066 0.027 0.433 0.163c0.535 0.2 5.425 1.967 12.371 2.47 1.192 0.086 2.387 0.13 3.552 0.13 1.441 0 2.87-0.066 4.248-0.196 0.351-0.027 8.708-0.786 9.58-10.983 1.068-0.326 4.065-1.246 4.843-1.494 0.599-0.191 2.66-0.885 5.802-1.954l0.183-0.062 0.2-0.069 0.69-0.234 0.357-0.122-0.003-0.377-0.007-0.73-0.002-0.205-0.002-0.335-0.001-0.112-0.006-0.464-0.097-7.536-0.013-0.835v-0.2l-0.008-0.633v-0.086l-0.004-0.329-0.001-0.17-0.102-0.136-0.195-0.263-0.051-0.07-1.765-2.416-0.117-0.161-0.422-0.583c1.282-1.552 2.124-3.156 2.508-4.782 0.63-2.658 0.794-6.827-0.82-9.826l-0.045-0.087-0.044-0.085c-0.588-1.166-2.384-4.725-6.61-5.997-1.145-0.343-2.462-0.517-3.916-0.517-0.518 0-1.047 0.023-1.576 0.067-0.653-1.293-2.331-4.276-4.462-5.582-1.833-1.121-3.488-1.288-4.311-1.288-0.312 0-0.535 0.022-0.65 0.038l-0.02 0.001-0.141 0.013-0.025 0.001-0.223 0.022c-0.736 0.072-2.233 0.217-4.099 0.217-0.709 0-1.43-0.022-2.144-0.067-4.087-0.25-7.705-0.854-11.063-1.847l-0.796-0.236-0.193-0.059-0.605-0.178-1.017-0.296-0.362-0.105-1.281-0.372-0.662-0.193z" fill="#fff"/><path d="m695.05 427.63 0.018 2.419s2.553 0.361 7.749-0.157l0.037-2.05s-4.374 0.359-7.804-0.212m0.018 15.476s2.517 0.492 7.715-0.026l0.037-2.051s-4.338 0.23-7.77-0.342l0.018 2.419zm29.135-14.168c-0.655 2.769-2.874 5.48-6.6 8.064l4.573-1.386 0.193-0.059 0.118 0.163 1.769 2.422 0.054 0.073 0.001 0.091 0.008 0.627 0.001 0.208 0.012 0.834 0.097 7.533 0.005 0.458 0.001 0.113 0.003 0.337 0.002 0.205-0.194 0.065c-0.05 0.017-4.978 1.696-5.962 2.009-0.893 0.285-4.91 1.516-5.846 1.802-0.294 9.872-7.931 10.585-8.255 10.61-1.335 0.125-2.717 0.189-4.105 0.189-1.134 0-2.292-0.042-3.441-0.126-6.909-0.501-11.741-2.3-11.944-2.377l-0.403-0.152-0.098-0.038-0.302-0.112-0.08-0.03-0.049-0.07-1.828-2.525-0.053-0.074-0.001-0.09-0.044-5.259-0.001-1.644c-3.817-1.526-6.562-3.62-8.161-6.224l-0.071-0.114c-0.102-0.165-0.199-0.321-0.305-0.54-0.204-0.227-1.391-1.565-1.795-2.501l-0.172-0.396c-0.745-1.706-1.45-3.316-1.214-6.915 0.332-5.036 3.085-7.384 8.667-7.384 0.829 0 1.89 0.022 2.859 0.123 1.118 0.119 2.852 0.415 2.852 0.415l-0.381-0.105-0.198-0.053-0.792-0.216-9.338-2.562-0.46-0.124-0.115-0.031-0.344-0.096-0.102-0.028-0.059-0.089-1.637-2.458-0.048-0.072v-0.085l-0.036-10.215-0.002-0.375 0.36 0.1 10.731 2.983 0.001-0.061 0.068-8.452 0.002-0.374 0.361 0.105 1.012 0.294 0.598 0.178 0.199 0.059 0.796 0.236c3.465 1.026 7.196 1.65 11.403 1.908 0.729 0.045 1.482 0.068 2.239 0.068 1.968 0 3.511-0.15 4.254-0.223l0.169-0.017 0.065-0.005 0.13-0.013 0.062-0.005c0.018-0.003 0.187-0.027 0.478-0.027 0.662 0 1.998 0.136 3.51 1.063 2.019 1.237 3.881 4.743 4.337 5.92 0.422-0.063 1.357-0.18 2.5-0.18 1.307 0 2.475 0.152 3.476 0.452 3.596 1.081 5.17 4.203 5.688 5.228 0.042 0.082 0.076 0.151 0.103 0.202 1.32 2.451 1.292 6.158 0.679 8.745" fill="#0c2340"/><path d="m713.54 424.99c-0.614 0.197-1.22 0.375-1.816 0.542v0.275l0.007 5.623 1.98-0.604-0.171-5.836zm-16.397 28.556c-0.912-0.067-1.83-0.165-2.733-0.294l0.014 1.735c0.961 0.173 1.96 0.298 2.969 0.371 3.537 0.257 6.469-0.167 7.681-0.387l0.022-1.627c-2.214 0.268-4.912 0.422-7.953 0.202m-0.205-26.383c-1.515-0.11-2.438-0.283-2.657-0.327l0.018 5.835 0.001 0.092c0.036 0.007 0.072 0.013 0.106 0.019 0.737 0.116 1.533 0.204 2.366 0.265 4.155 0.301 8.126-0.214 8.164-0.218l0.133-0.018 0.009-5.927c-3.552 0.459-6.384 0.406-8.14 0.279m8.074-7.49-0.04-1.355c-2.677 0.277-5.362 0.322-7.977 0.133-1.184-0.086-2.12-0.206-2.741-0.299l0.005 1.649 0.043 0.005c0.678 0.078 1.363 0.14 2.034 0.19 3.514 0.254 6.461 0.082 8.679-0.197l-0.003-0.126zm-20.368 18.104c0.07 2.294 0.177 4.851 0.09 5.955l2.24 0.543 0.21 0.053 0.007-5.731 0.001-0.13c-1.049-0.263-1.92-0.507-2.548-0.69m9.714 8.048 0.255 0.05c0.181 0.034 1.166 0.209 2.745 0.324 1.742 0.126 4.451 0.191 7.691-0.175l0.001-0.17 0.01-5.769c-2.089 0.323-4.5 0.389-7.18 0.194-1.205-0.087-2.404-0.222-3.565-0.388l0.043 5.934zm29.195-17.123c-0.833 3.514-4.148 6.334-6.785 8.079-2.072 1.372-4.667 1.967-4.776 1.992l-0.254 0.058 0.006 5.89c0.666-0.187 1.339-0.395 2.019-0.627l0.057-1.49 0.015-0.444 0.005-0.11 0.104-0.032 0.425-0.133 8.261-2.55 0.798-0.247 0.199-0.062 0.003 0.209 0.011 0.836 0.097 7.53 0.006 0.455 0.001 0.115-0.107 0.036-0.432 0.144c-0.088 0.029-7.543 2.545-11.454 3.668l-0.003 0.227c-0.124 9.497-7.15 10.149-7.446 10.172-2.399 0.225-4.896 0.245-7.421 0.062-6.768-0.491-11.535-2.258-11.734-2.333l-0.401-0.149-0.101-0.038v-0.108l-0.003-0.429-0.043-5.648-0.006-0.792-0.001-0.197 0.191 0.044 0.771 0.178 1.623 0.374 0.001-1.736-0.55-0.13c-5.949-1.411-10.031-3.86-12.126-7.277-1.611-2.626-2.057-5.831-1.323-9.526 0.664-3.348 3.823-4.989 8.892-4.621 1.427 0.104 2.451 0.331 2.561 0.356 0.223 0.052 0.593 0.157 1.109 0.303l0.1 0.028c0.354 0.099 0.77 0.217 1.232 0.346l-0.001-5.907-0.603-0.156-1.975-0.506 0.002 0.912 0.003 0.821-0.001 0.204-0.196-0.054-0.792-0.216-9.341-2.563-0.458-0.124-0.112-0.03-0.001-0.12-0.003-0.475-0.026-7.608-0.003-0.825-0.001-0.208 0.198 0.058 0.796 0.22 12.281 3.429 0.23 0.062v-1.389l-1.837-0.538-0.451-0.133-0.114-0.033 0.004-0.587 0.03-5.814 0.005-0.831 0.003-0.21 0.197 0.061 0.798 0.236c3.841 1.137 7.727 1.855 11.55 2.131 3.823 0.278 6.488 0.026 7.372-0.057 0.117-0.01 0.206-0.019 0.268-0.024 0.401-0.03 0.782-0.03 1.16-0.004 1.744 0.128 3.186 0.87 4.17 2.146 1.367 1.777 1.346 4.373 1.291 5.278 2.05-0.567 3.849-0.789 5.457-0.674 1.465 0.107 2.783 0.48 4.148 1.172 3.111 1.577 3.142 6.93 2.431 9.933" fill="#fff"/><path d="m680.75 431.1c1.962 0 3.58 0.365 3.648 0.38 0.204 0.048 0.595 0.158 1.137 0.312 1.834 0.522 5.249 1.49 8.707 2.035 1.58 0.248 3.365 0.374 5.305 0.374 2.427 0 4.673-0.203 5.432-0.289l0.019 5.133c-1.216 0.181-2.779 0.275-4.213 0.275-8.032 0-16.8-2.861-16.887-2.89l-0.402-0.133 0.031 0.422c0.231 3.188 0.088 7.554 0.087 7.597l-0.008 0.231 0.225 0.054 3.286 0.912 0.018 5.14c-9.724-2.406-14.472-7.873-12.911-15.738 0.625-3.152 3.894-3.815 6.526-3.815m41.768-2.648c-0.791 3.345-4.31 6.095-6.336 7.437-1.478 0.977-3.547 1.624-4.3 1.83l-0.079-5.193 2.788-0.864 0.207-0.063-0.006-0.217-0.219-7.477-0.012-0.383-0.363 0.124c-6.122 2.099-11.341 2.54-14.64 2.54-2.567 0-4.6-0.251-5.184-0.353l-0.162-4.928c1.764 0.19 3.826 0.275 5.548 0.275 6.293 0 10.034-1.25 10.193-1.304 2.385-0.841 4.4-1.25 6.162-1.25 1.627 0 3.065 0.345 4.527 1.085 2.403 1.219 2.54 5.937 1.876 8.741m-7.898 16.465 0.182-0.064 0.006-0.193 0.066-1.821 7.709-2.381 0.09 6.947c-1.45 0.485-10.478 3.501-12.85 4.019-1.85 0.405-5.294 1.157-9.757 1.157-1.777 0-3.858-0.11-5.607-0.349l-0.011-5.249c0.755 0.122 3.016 0.376 5.798 0.376 3.425 0 8.698-0.423 14.374-2.442m-31.191-21.738 0.001 0.366 0.004 1.547-8.773-2.404-0.026-7.019 12.327 3.53 0.027 4.999-3.205-0.928-0.355-0.091z" fill="#0033a0"/><path d="m688.24 454.72v-0.356l0.014-15.657c1.759 0.416 4.238 0.901 4.997 1.047l0.113 15.884 0.001 0.23 0.226 0.045c1.917 0.392 3.954 0.591 6.052 0.591 3.635 0 6.163-0.588 6.268-0.613l0.215-0.051 0.004-0.22 0.027-2.229c1.762-0.267 3.724-0.749 4.521-0.954 0 8.572-6.202 8.912-6.471 8.925-1.284 0.12-2.61 0.181-3.939 0.181-7.514 0-13.464-1.94-14.565-2.323l-0.038-5.093 2.229 0.513 0.346 0.08zm17.824-35.193-0.052-2.087-0.008-0.312-0.31 0.038c-1.82 0.223-3.676 0.336-5.509 0.336-4.015 0-6.628-0.547-6.655-0.553l-0.343-0.073v0.352l0.047 15.318c-0.993-0.188-3.569-0.811-5.097-1.189l-0.005-15.29v-0.211l-0.203-0.061-2.192-0.641 0.029-5.226c6.27 1.812 11.574 2.197 14.945 2.197 1.997 0 3.402-0.132 4.003-0.189 0.113-0.01 0.2-0.018 0.26-0.022 0.185-0.013 0.36-0.021 0.535-0.021 1.151 0 2.758 0.304 3.874 1.753 1.19 1.542 1.114 4.183 1.068 4.861-1.464 0.445-3.584 0.866-4.387 1.02m0.049 26.288 0.029-19.039c1.502-0.233 3.681-0.697 4.517-0.879v0.264l0.02 18.739c-1.649 0.456-3.768 0.796-4.566 0.915" fill="#ffd700"/></g></g></svg>
